<svg xmlns="http://www.w3.org/2000/svg" viewBox="0 0 25.813 22">
  <defs>
    <style>
      .cls-1 {
        fill: rgba(97,82,114,0.6);
      }
    </style>
  </defs>
  <path id="Path_223" data-name="Path 223" class="cls-1" d="M19.558,5.588a1.424,1.424,0,0,0-.193.009,7.243,7.243,0,0,0-14-.387c-.062,0-.132-.009-.193-.009A5.163,5.163,0,0,0,2.24,14.62a3.546,3.546,0,1,0,4.911,5.026v.062a2.243,2.243,0,0,0,4.34.791,4.528,4.528,0,0,0,7.855-2.407c.07,0,.141.009.22.009a6.256,6.256,0,0,0-.009-12.511Z" transform="translate(0)"/>
</svg>
