<svg xmlns="http://www.w3.org/2000/svg" viewBox="0 0 165.438 257.301">
  <defs>
    <style>
      .cls-1 {
        fill: #e9dff7;
      }

      .cls-2 {
        opacity: 0.9;
      }

      .cls-3 {
        fill: #1d1724;
      }

      .cls-4 {
        fill: #fff;
      }

      .cls-5 {
        opacity: 0.42;
      }

      .cls-6 {
        fill: #0e0d11;
      }
    </style>
  </defs>
  <g id="Group_305" data-name="Group 305" transform="matrix(0.985, 0.174, -0.174, 0.985, 41.92, -2.782)">
    <g id="Group_224" data-name="Group 224" transform="translate(2.409 52.04)">
      <rect id="Rectangle_31" data-name="Rectangle 31" class="cls-1" width="89.625" height="186.96"/>
    </g>
    <g id="Group_225" data-name="Group 225" transform="translate(2.409 20.72)">
      <path id="Path_165" data-name="Path 165" class="cls-1" d="M106.731,0,89.625,31.321H0L17.106,0Z"/>
    </g>
    <g id="Group_226" data-name="Group 226" transform="translate(92.034 52.04)">
      <path id="Path_166" data-name="Path 166" class="cls-1" d="M34.212,9.155V170.577L0,186.96V0Z"/>
    </g>
    <g id="Group_228" data-name="Group 228" class="cls-2" transform="translate(92.034 52.04)">
      <g id="Group_227" data-name="Group 227">
        <path id="Path_167" data-name="Path 167" class="cls-3" d="M34.212,9.155V170.577L0,186.96V0Z"/>
      </g>
    </g>
    <g id="Group_229" data-name="Group 229" transform="translate(89.625 49.605)">
      <path id="Path_168" data-name="Path 168" class="cls-3" d="M2.409,191.805a2.554,2.554,0,0,1-1.3-.385A2.32,2.32,0,0,1,0,189.4V2.436A2.374,2.374,0,0,1,.964.508,2.444,2.444,0,0,1,3.036.075L37.247,9.23a2.415,2.415,0,0,1,1.783,2.313V172.965a2.411,2.411,0,0,1-1.349,2.168L3.469,191.516A2.2,2.2,0,0,1,2.409,191.805ZM4.819,5.568V185.541l29.393-14.07V13.422Z"/>
    </g>
    <g id="Group_230" data-name="Group 230" transform="translate(19.515 2.409)">
      <path id="Path_169" data-name="Path 169" class="cls-1" d="M84.566,0H5.059A5.059,5.059,0,0,0,0,5.059V18.311H89.625V5.059A5.059,5.059,0,0,0,84.566,0Z"/>
    </g>
    <g id="Group_231" data-name="Group 231" transform="translate(92.034 20.72)">
      <path id="Path_170" data-name="Path 170" class="cls-1" d="M17.106,0,34.212,40.476,0,31.321Z"/>
    </g>
    <g id="Group_233" data-name="Group 233" class="cls-2" transform="translate(92.034 20.72)">
      <g id="Group_232" data-name="Group 232">
        <path id="Path_171" data-name="Path 171" class="cls-3" d="M17.106,0,34.212,40.476,0,31.321Z"/>
      </g>
    </g>
    <g id="Group_234" data-name="Group 234" transform="translate(89.628 18.259)">
      <path id="Path_172" data-name="Path 172" class="cls-3" d="M36.618,45.346a2.82,2.82,0,0,1-.626-.1L1.78,36.094A2.426,2.426,0,0,1,.19,34.7a2.517,2.517,0,0,1,.1-2.12L17.392,1.256A2.364,2.364,0,0,1,19.609,0a2.521,2.521,0,0,1,2.12,1.446L38.835,41.925a2.468,2.468,0,0,1-.385,2.506A2.279,2.279,0,0,1,36.618,45.346ZM5.972,32.239l26.5,7.083L19.223,8Z"/>
    </g>
    <g id="Group_236" data-name="Group 236" transform="translate(2.361 2.409)">
      <g id="Group_235" data-name="Group 235">
        <path id="Path_173" data-name="Path 173" class="cls-4" d="M7.083,236.591V49.968l18.6-31.658V9.348a8.413,8.413,0,0,1,2.554-6.071L31.61,0H19.949L17.154,5.059V18.311L0,49.968.048,236.591Z"/>
      </g>
    </g>
    <g id="Group_239" data-name="Group 239" class="cls-2" transform="translate(2.361 52.378)">
      <g id="Group_238" data-name="Group 238">
        <g id="Group_237" data-name="Group 237">
          <rect id="Rectangle_32" data-name="Rectangle 32" class="cls-3" width="89.625" height="26.165"/>
        </g>
      </g>
    </g>
    <g id="Group_242" data-name="Group 242" class="cls-2" transform="translate(2.361 173.95)">
      <g id="Group_241" data-name="Group 241">
        <g id="Group_240" data-name="Group 240">
          <rect id="Rectangle_33" data-name="Rectangle 33" class="cls-3" width="89.625" height="65.051"/>
        </g>
      </g>
    </g>
    <g id="Group_245" data-name="Group 245" transform="translate(91.986 52.378)">
      <g id="Group_244" data-name="Group 244">
        <g id="Group_243" data-name="Group 243">
          <path id="Path_174" data-name="Path 174" class="cls-3" d="M34.26,34.983,0,26.165V0L34.26,8.818Z"/>
        </g>
      </g>
    </g>
    <g id="Group_248" data-name="Group 248" transform="translate(91.986 167.204)">
      <g id="Group_247" data-name="Group 247">
        <g id="Group_246" data-name="Group 246">
          <path id="Path_175" data-name="Path 175" class="cls-3" d="M34.26,55.413,0,71.8V6.746L34.26,0Z"/>
        </g>
      </g>
    </g>
    <g id="Group_263" data-name="Group 263" transform="translate(9.444 57.582)">
      <g id="Group_250" data-name="Group 250" transform="translate(0 0.193)">
        <g id="Group_249" data-name="Group 249">
          <path id="Path_176" data-name="Path 176" class="cls-1" d="M10.264,0h2.6V12.769H9.926V6.939l-2.409,5.83H5.4L2.939,6.987v5.782H0V0H2.6L6.409,8.722Z"/>
        </g>
      </g>
      <g id="Group_252" data-name="Group 252" transform="translate(15.227 0.193)">
        <g id="Group_251" data-name="Group 251">
          <path id="Path_177" data-name="Path 177" class="cls-1" d="M0,12.769V0H3.373V12.769Z"/>
        </g>
      </g>
      <g id="Group_254" data-name="Group 254" transform="translate(20.383 0.048)">
        <g id="Group_253" data-name="Group 253">
          <path id="Path_178" data-name="Path 178" class="cls-1" d="M2.265,12.673A6.568,6.568,0,0,1,0,11.661L1.06,9.3a10.466,10.466,0,0,0,1.976.916,8.106,8.106,0,0,0,2.12.337,3.694,3.694,0,0,0,1.638-.289.912.912,0,0,0,.578-.819,1,1,0,0,0-.53-.819A7.249,7.249,0,0,0,4.867,8a10.692,10.692,0,0,1-2.795-.867,3.008,3.008,0,0,1-1.4-1.253A3.3,3.3,0,0,1,.289,4.144a3.7,3.7,0,0,1,.675-2.12A4.554,4.554,0,0,1,2.843.53,7.154,7.154,0,0,1,5.59,0a10.141,10.141,0,0,1,2.7.385A4.979,4.979,0,0,1,10.312,1.4L9.252,3.758a8.918,8.918,0,0,0-1.783-.916A6.44,6.44,0,0,0,5.59,2.506a2.471,2.471,0,0,0-1.446.337,1.06,1.06,0,0,0-.578.964.725.725,0,0,0,.193.53,2.356,2.356,0,0,0,.723.434,10,10,0,0,0,1.59.434,9.6,9.6,0,0,1,2.747.916,3.121,3.121,0,0,1,1.831,2.939A3.461,3.461,0,0,1,9.2,12a6.689,6.689,0,0,1-4.1,1.06A11.535,11.535,0,0,1,2.265,12.673Z"/>
        </g>
      </g>
      <g id="Group_256" data-name="Group 256" transform="translate(32.429 0.048)">
        <g id="Group_255" data-name="Group 255">
          <path id="Path_179" data-name="Path 179" class="cls-1" d="M2.265,12.673A6.568,6.568,0,0,1,0,11.661L1.06,9.3a10.465,10.465,0,0,0,1.976.916,8.106,8.106,0,0,0,2.12.337,3.694,3.694,0,0,0,1.638-.289.912.912,0,0,0,.578-.819,1,1,0,0,0-.53-.819A7.249,7.249,0,0,0,4.867,8a10.692,10.692,0,0,1-2.795-.867,3.008,3.008,0,0,1-1.4-1.253A3.3,3.3,0,0,1,.289,4.144a3.7,3.7,0,0,1,.675-2.12A4.554,4.554,0,0,1,2.843.53,7.154,7.154,0,0,1,5.59,0a10.141,10.141,0,0,1,2.7.385A4.979,4.979,0,0,1,10.312,1.4L9.252,3.758a8.918,8.918,0,0,0-1.783-.916A6.44,6.44,0,0,0,5.59,2.506a2.471,2.471,0,0,0-1.446.337,1.06,1.06,0,0,0-.578.964.725.725,0,0,0,.193.53,2.356,2.356,0,0,0,.723.434,10,10,0,0,0,1.59.434,9.6,9.6,0,0,1,2.747.916,3.121,3.121,0,0,1,1.831,2.939A3.461,3.461,0,0,1,9.2,12a6.689,6.689,0,0,1-4.1,1.06A11.535,11.535,0,0,1,2.265,12.673Z"/>
        </g>
      </g>
      <g id="Group_258" data-name="Group 258" transform="translate(44.957 0.193)">
        <g id="Group_257" data-name="Group 257">
          <path id="Path_180" data-name="Path 180" class="cls-1" d="M0,12.769V0H3.373V12.769Z"/>
        </g>
      </g>
      <g id="Group_260" data-name="Group 260" transform="translate(50.643 0.193)">
        <g id="Group_259" data-name="Group 259">
          <path id="Path_181" data-name="Path 181" class="cls-1" d="M8.24,0h3.18V12.769H8.914L3.132,5.541v7.228H0V0H2.457L8.24,7.228Z"/>
        </g>
      </g>
      <g id="Group_262" data-name="Group 262" transform="translate(64.039 0)">
        <g id="Group_261" data-name="Group 261">
          <path id="Path_182" data-name="Path 182" class="cls-1" d="M11.661,5.734v6.409a13.885,13.885,0,0,1-2.265.723,14.914,14.914,0,0,1-2.6.241,7.692,7.692,0,0,1-3.614-.771A5.639,5.639,0,0,1,.819,10.071,7.3,7.3,0,0,1,0,6.553,7.376,7.376,0,0,1,.819,3.084,5.811,5.811,0,0,1,3.132.819,7.433,7.433,0,0,1,6.65,0a9.175,9.175,0,0,1,2.6.337,5.812,5.812,0,0,1,1.976.964l-1.06,2.361a6,6,0,0,0-1.686-.819A5.041,5.041,0,0,0,6.746,2.6a3.269,3.269,0,0,0-2.554.964,4.285,4.285,0,0,0-.819,2.939A4.564,4.564,0,0,0,4.24,9.541a3.367,3.367,0,0,0,2.7.964,6.714,6.714,0,0,0,1.686-.193V7.951H6.409V5.686h5.252Z"/>
        </g>
      </g>
    </g>
    <g id="Group_264" data-name="Group 264" transform="translate(0 49.631)">
      <path id="Path_183" data-name="Path 183" class="cls-3" d="M92.034,191.779H2.409A2.386,2.386,0,0,1,0,189.369V2.409A2.386,2.386,0,0,1,2.409,0H92.034a2.386,2.386,0,0,1,2.409,2.409v186.96A2.386,2.386,0,0,1,92.034,191.779ZM4.819,186.96H89.625V4.819H4.819Z"/>
    </g>
    <g id="Group_265" data-name="Group 265" transform="translate(0.006 18.311)">
      <path id="Path_184" data-name="Path 184" class="cls-3" d="M92.029,36.139H2.4A2.386,2.386,0,0,1,.332,34.983a2.423,2.423,0,0,1-.048-2.361L17.389,1.3A2.4,2.4,0,0,1,19.509,0h89.625a2.386,2.386,0,0,1,2.072,1.156,2.423,2.423,0,0,1,.048,2.361L94.149,34.838A2.4,2.4,0,0,1,92.029,36.139ZM6.451,31.321H90.583l14.456-26.5H20.955Z"/>
    </g>
    <g id="Group_266" data-name="Group 266" transform="translate(17.106 0)">
      <path id="Path_185" data-name="Path 185" class="cls-3" d="M92.034,23.129H2.409A2.386,2.386,0,0,1,0,20.72V7.469A7.506,7.506,0,0,1,7.469,0H86.975a7.506,7.506,0,0,1,7.469,7.469V20.72A2.386,2.386,0,0,1,92.034,23.129ZM4.819,18.311H89.625V7.469a2.674,2.674,0,0,0-2.65-2.65H7.469a2.674,2.674,0,0,0-2.65,2.65Z"/>
    </g>
    <g id="Group_271" data-name="Group 271" transform="translate(16.72 96.371)">
      <g id="Group_267" data-name="Group 267">
        <path id="Path_186" data-name="Path 186" class="cls-3" d="M28.622,0A28.565,28.565,0,0,0,8.963,49.342a17.354,17.354,0,0,0,3.807-7.613L15.66,19.467a4.522,4.522,0,0,1,4.481-3.951H37.826a5.867,5.867,0,0,1,5.83,6.65L41.777,36.573a5.874,5.874,0,0,1-5.83,5.108H29.008S18.359,42.4,18.359,54.257c0,.289-.1.578-.1.867A28.549,28.549,0,1,0,28.622,0Z"/>
      </g>
      <g id="Group_268" data-name="Group 268" transform="translate(35.127 21.057)">
        <path id="Path_187" data-name="Path 187" class="cls-3" d="M5.3,2.65A2.674,2.674,0,0,0,2.65,0,2.674,2.674,0,0,0,0,2.65,2.674,2.674,0,0,0,2.65,5.3,2.613,2.613,0,0,0,5.3,2.65Z"/>
      </g>
      <g id="Group_269" data-name="Group 269" transform="translate(22.214 21.057)">
        <path id="Path_188" data-name="Path 188" class="cls-3" d="M2.65,0A2.674,2.674,0,0,0,0,2.65,2.674,2.674,0,0,0,2.65,5.3,2.674,2.674,0,0,0,5.3,2.65,2.674,2.674,0,0,0,2.65,0Z"/>
      </g>
      <g id="Group_270" data-name="Group 270" transform="translate(25.057 30.501)">
        <path id="Path_189" data-name="Path 189" class="cls-3" d="M6.216,0A6.231,6.231,0,0,0,0,6.216H12.432A6.17,6.17,0,0,0,6.216,0Z"/>
      </g>
    </g>
    <g id="Group_272" data-name="Group 272" transform="translate(8.143 82.927)">
      <path id="Path_190" data-name="Path 190" class="cls-3" d="M65.918,84.036H8.529A8.545,8.545,0,0,1,0,75.507V8.529A8.545,8.545,0,0,1,8.529,0H65.918a8.545,8.545,0,0,1,8.529,8.529V75.507A8.545,8.545,0,0,1,65.918,84.036ZM8.529,4.867a3.712,3.712,0,0,0-3.71,3.71V75.555a3.712,3.712,0,0,0,3.71,3.71H65.918a3.712,3.712,0,0,0,3.71-3.71V8.577a3.712,3.712,0,0,0-3.71-3.71Z"/>
    </g>
    <g id="Group_285" data-name="Group 285" class="cls-5" transform="translate(25.924 6.457)">
      <g id="Group_273" data-name="Group 273">
        <path id="Path_191" data-name="Path 191" class="cls-6" d="M.723,9.974A.741.741,0,0,1,0,9.252V.723A.741.741,0,0,1,.723,0a.741.741,0,0,1,.723.723V9.252A.741.741,0,0,1,.723,9.974Z"/>
      </g>
      <g id="Group_274" data-name="Group 274" transform="translate(6.842 0)">
        <path id="Path_192" data-name="Path 192" class="cls-6" d="M.723,9.974A.741.741,0,0,1,0,9.252V.723A.741.741,0,0,1,.723,0a.741.741,0,0,1,.723.723V9.252A.741.741,0,0,1,.723,9.974Z"/>
      </g>
      <g id="Group_275" data-name="Group 275" transform="translate(13.637 0)">
        <path id="Path_193" data-name="Path 193" class="cls-6" d="M.723,9.974A.741.741,0,0,1,0,9.252V.723A.741.741,0,0,1,.723,0a.741.741,0,0,1,.723.723V9.252A.71.71,0,0,1,.723,9.974Z"/>
      </g>
      <g id="Group_276" data-name="Group 276" transform="translate(20.479 0)">
        <path id="Path_194" data-name="Path 194" class="cls-6" d="M.723,9.974A.741.741,0,0,1,0,9.252V.723A.741.741,0,0,1,.723,0a.741.741,0,0,1,.723.723V9.252A.71.71,0,0,1,.723,9.974Z"/>
      </g>
      <g id="Group_277" data-name="Group 277" transform="translate(27.321 0)">
        <path id="Path_195" data-name="Path 195" class="cls-6" d="M.723,9.974A.741.741,0,0,1,0,9.252V.723A.741.741,0,0,1,.723,0a.741.741,0,0,1,.723.723V9.252A.71.71,0,0,1,.723,9.974Z"/>
      </g>
      <g id="Group_278" data-name="Group 278" transform="translate(34.164 0)">
        <path id="Path_196" data-name="Path 196" class="cls-6" d="M.723,9.974A.741.741,0,0,1,0,9.252V.723A.741.741,0,0,1,.723,0a.741.741,0,0,1,.723.723V9.252A.741.741,0,0,1,.723,9.974Z"/>
      </g>
      <g id="Group_279" data-name="Group 279" transform="translate(41.006 0)">
        <path id="Path_197" data-name="Path 197" class="cls-6" d="M.723,9.974A.741.741,0,0,1,0,9.252V.723A.741.741,0,0,1,.723,0a.741.741,0,0,1,.723.723V9.252A.741.741,0,0,1,.723,9.974Z"/>
      </g>
      <g id="Group_280" data-name="Group 280" transform="translate(47.848 0)">
        <path id="Path_198" data-name="Path 198" class="cls-6" d="M.723,9.974A.741.741,0,0,1,0,9.252V.723A.741.741,0,0,1,.723,0a.741.741,0,0,1,.723.723V9.252A.741.741,0,0,1,.723,9.974Z"/>
      </g>
      <g id="Group_281" data-name="Group 281" transform="translate(54.691 0)">
        <path id="Path_199" data-name="Path 199" class="cls-6" d="M.723,9.974A.741.741,0,0,1,0,9.252V.723A.741.741,0,0,1,.723,0a.741.741,0,0,1,.723.723V9.252A.741.741,0,0,1,.723,9.974Z"/>
      </g>
      <g id="Group_282" data-name="Group 282" transform="translate(61.533 0)">
        <path id="Path_200" data-name="Path 200" class="cls-6" d="M.723,9.974A.741.741,0,0,1,0,9.252V.723A.741.741,0,0,1,.723,0a.741.741,0,0,1,.723.723V9.252A.741.741,0,0,1,.723,9.974Z"/>
      </g>
      <g id="Group_283" data-name="Group 283" transform="translate(68.375 0)">
        <path id="Path_201" data-name="Path 201" class="cls-6" d="M.723,9.974A.741.741,0,0,1,0,9.252V.723A.741.741,0,0,1,.723,0a.741.741,0,0,1,.723.723V9.252A.741.741,0,0,1,.723,9.974Z"/>
      </g>
      <g id="Group_284" data-name="Group 284" transform="translate(75.218 0)">
        <path id="Path_202" data-name="Path 202" class="cls-6" d="M.723,9.974A.741.741,0,0,1,0,9.252V.723A.741.741,0,0,1,.723,0a.741.741,0,0,1,.723.723V9.252A.741.741,0,0,1,.723,9.974Z"/>
      </g>
    </g>
    <g id="Group_289" data-name="Group 289" transform="translate(13.781 189.948)">
      <g id="Group_286" data-name="Group 286" transform="translate(0 0.289)">
        <path id="Path_203" data-name="Path 203" class="cls-1" d="M20.527,17.732V23.37H17.154v4.722H10.408V23.37H0V17.925L11.661,0h5.493V17.732Zm-14.359,0h4.289v-6.65Z"/>
      </g>
      <g id="Group_287" data-name="Group 287" transform="translate(21.973 0)">
        <path id="Path_204" data-name="Path 204" class="cls-1" d="M2.554,25.057C.819,22.6,0,18.985,0,14.311,0,9.685.867,6.168,2.554,3.71A8.54,8.54,0,0,1,9.974,0,8.54,8.54,0,0,1,17.4,3.71c1.735,2.457,2.554,5.975,2.554,10.6,0,4.674-.867,8.288-2.554,10.745a8.54,8.54,0,0,1-7.421,3.71A8.375,8.375,0,0,1,2.554,25.057Zm9.926-3.9a21,21,0,0,0,.771-6.794,20.525,20.525,0,0,0-.771-6.7C11.95,6.312,11.131,5.59,9.974,5.59A2.608,2.608,0,0,0,7.469,7.662a20.331,20.331,0,0,0-.771,6.7,20.615,20.615,0,0,0,.771,6.794c.53,1.4,1.349,2.072,2.506,2.072S11.95,22.5,12.48,21.153Z"/>
      </g>
      <g id="Group_288" data-name="Group 288" transform="translate(43.849 0.289)">
        <path id="Path_205" data-name="Path 205" class="cls-1" d="M20.527,17.732V23.37H17.154v4.722H10.408V23.37H0V17.925L11.661,0h5.493V17.732Zm-14.359,0h4.289v-6.65Z"/>
      </g>
    </g>
    <g id="Group_304" data-name="Group 304" transform="translate(98.588 87.201)">
      <g id="Group_290" data-name="Group 290" transform="translate(0.048 0)">
        <path id="Path_206" data-name="Path 206" class="cls-3" d="M1.253,4.689,13.347,7.146c.626.145,1.108-.771,1.06-1.976,0-1.2-.53-2.313-1.108-2.457L1.253.015C.578-.13,0,.786,0,2.087S.53,4.544,1.253,4.689Z"/>
      </g>
      <g id="Group_291" data-name="Group 291" transform="translate(16.817 3.71)">
        <path id="Path_207" data-name="Path 207" class="cls-3" d="M1.108,4.352,3.9,4.931c.578.1,1.012-.723,1.012-1.927,0-1.156-.482-2.217-1.06-2.361L1.06.016C.482-.129,0,.739,0,1.943.048,3.148.53,4.256,1.108,4.352Z"/>
      </g>
      <g id="Group_292" data-name="Group 292" transform="translate(0.093 10.217)">
        <path id="Path_208" data-name="Path 208" class="cls-3" d="M1.208,4.736,8.146,5.8c.626.1,1.156-.867,1.156-2.12s-.53-2.361-1.156-2.457L1.256.014C.581-.131,0,.881,0,2.182-.045,3.483.485,4.64,1.208,4.736Z"/>
      </g>
      <g id="Group_293" data-name="Group 293" transform="translate(12.143 12.344)">
        <path id="Path_209" data-name="Path 209" class="cls-3" d="M8.625,1.308,1.108.007C.482-.089,0,.826,0,2.079S.53,4.392,1.156,4.488L8.673,5.645c.578.1,1.012-.819,1.012-1.976C9.685,2.416,9.2,1.4,8.625,1.308Z"/>
      </g>
      <g id="Group_294" data-name="Group 294" transform="translate(0.094 62.462)">
        <path id="Path_210" data-name="Path 210" class="cls-3" d="M1.256,5.639l7.131-.771c.675-.1,1.2-1.2,1.2-2.554h0c0-1.349-.53-2.361-1.2-2.313L1.3.628C.581.676,0,1.881,0,3.278H0C-.045,4.627.533,5.688,1.256,5.639Z"/>
      </g>
      <g id="Group_295" data-name="Group 295" transform="translate(12.525 61.354)">
        <path id="Path_211" data-name="Path 211" class="cls-3" d="M8.773,0,1.111.676C.485.725-.045,1.833,0,3.134H0C0,4.435.533,5.447,1.16,5.4l7.71-.819c.578-.048,1.012-1.108,1.012-2.361h0C9.833.917,9.351-.046,8.773,0Z"/>
      </g>
      <g id="Group_296" data-name="Group 296" transform="translate(0.093 20.584)">
        <path id="Path_212" data-name="Path 212" class="cls-3" d="M1.208,4.777l12,1.2c.626.048,1.108-.916,1.108-2.12,0-1.253-.53-2.313-1.108-2.361L1.256.006C.581-.09,0,.922,0,2.271-.045,3.572.485,4.68,1.208,4.777Z"/>
      </g>
      <g id="Group_297" data-name="Group 297" transform="translate(16.046 22.511)">
        <path id="Path_213" data-name="Path 213" class="cls-3" d="M4.867.489,1.06.007C.482-.09,0,.874,0,2.079,0,3.331.482,4.343,1.108,4.44l3.807.385c.578.048,1.012-.867,1.012-2.072C5.879,1.549,5.4.537,4.867.489Z"/>
      </g>
      <g id="Group_298" data-name="Group 298" transform="translate(0.048 30.949)">
        <path id="Path_214" data-name="Path 214" class="cls-3" d="M1.253,4.917l5.011.241c.675.048,1.2-1.012,1.2-2.313S6.939.435,6.264.387L1.253,0C.53-.047,0,1.013,0,2.363,0,3.76.578,4.868,1.253,4.917Z"/>
      </g>
      <g id="Group_299" data-name="Group 299" transform="translate(9.493 31.671)">
        <path id="Path_215" data-name="Path 215" class="cls-3" d="M11.516.773,1.156,0C.53-.047,0,.965,0,2.266S.53,4.627,1.156,4.676l10.408.53c.578.048,1.012-.916,1.012-2.12C12.528,1.833,12.095.821,11.516.773Z"/>
      </g>
      <g id="Group_300" data-name="Group 300" transform="translate(15.802 51.622)">
        <path id="Path_216" data-name="Path 216" class="cls-3" d="M5.4,0,1.063.145C.437.145-.045,1.2,0,2.457,0,3.71.533,4.722,1.112,4.722l4.337-.241c.578-.048,1.012-1.06,1.012-2.265C6.46.964,5.978,0,5.4,0Z"/>
      </g>
      <g id="Group_301" data-name="Group 301" transform="translate(0 51.909)">
        <path id="Path_217" data-name="Path 217" class="cls-3" d="M1.3,5.3l11.516-.626c.626-.048,1.108-1.108,1.108-2.409h0c0-1.3-.53-2.313-1.156-2.265L1.3.387C.578.387,0,1.544,0,2.941H0C.048,4.242.626,5.35,1.3,5.3Z"/>
      </g>
      <g id="Group_302" data-name="Group 302" transform="translate(0 41.599)">
        <path id="Path_218" data-name="Path 218" class="cls-3" d="M21.105.385,1.3,0C.578,0,0,1.06,0,2.457,0,3.807.578,4.915,1.3,4.915l19.852-.048c.578,0,1.012-1.012,1.012-2.217C22.165,1.4,21.684.385,21.105.385Z"/>
      </g>
      <g id="Group_303" data-name="Group 303" transform="translate(0.048 71.183)">
        <path id="Path_219" data-name="Path 219" class="cls-3" d="M21.394,0,1.3,2.8C.578,2.893,0,4.1,0,5.543H0C0,6.941.578,8,1.3,7.9L21.443,4.628c.578-.1,1.06-1.2,1.012-2.457h0C22.454.869,21.973-.046,21.394,0Z"/>
      </g>
    </g>
  </g>
</svg>
