<svg xmlns="http://www.w3.org/2000/svg" xmlns:xlink="http://www.w3.org/1999/xlink" viewBox="0 0 238.753 87.831">
  <defs>
    <style>
      .cls-1 {
        fill: #1d1724;
      }

      .cls-2 {
        opacity: 0.1;
      }

      .cls-3 {
        fill: #e9dff7;
      }

      .cls-4, .cls-5 {
        fill: #615272;
      }

      .cls-5 {
        font-size: 29px;
        font-family: Muli-ExtraBold, Muli;
        font-weight: 800;
        letter-spacing: 0.02em;
      }

      .cls-6 {
        filter: url(#Puffysticks);
      }
    </style>
    <filter id="Puffysticks" x="30.394" y="22.882" width="164.158" height="44.597" filterUnits="userSpaceOnUse">
      <feOffset dx="-2" dy="3" input="SourceAlpha"/>
      <feGaussianBlur result="blur"/>
      <feFlood flood-color="#1d1724"/>
      <feComposite operator="in" in2="blur"/>
      <feComposite in="SourceGraphic"/>
    </filter>
  </defs>
  <g id="Group_310" data-name="Group 310" transform="translate(-1680.529 163.816)">
    <path id="Path_221" data-name="Path 221" class="cls-1" d="M1687.372-139.543l1.368-21.889h21.342l5.746,3.831,8.208-3.831,102.331,1.915,9.029,4.651,8.756-4.651,32.013,1.915,39.674,38.853-37.485,38.032h-73.6l-17.238-4.378-19.7,6.293h-84.273l1.368-20.247,5.2-6.293-5.2-13.407,9.576-13.954Z"/>
    <g id="Group_309" data-name="Group 309" transform="translate(816.529 -605.634)">
      <g id="Group_22" data-name="Group 22" transform="translate(864 441.819)">
        <g id="Group_20" data-name="Group 20" class="cls-2" transform="translate(2.641 2.072)">
          <g id="Group_12" data-name="Group 12" transform="translate(0 39.534)">
            <path id="Path_43" data-name="Path 43" class="cls-3" d="M57.241,111.022c-.772-4.509-7.272-6.175-12.066-6.987-7.394-1.3-18.809-1.828-33.841-1.544l.081,4.469c14.747-.244,25.837.244,32.987,1.5,8.044,1.422,8.45,3.331,8.45,3.331.041.162.447,4.266-21.978,13.812-11.944,5.078-24.253,9.059-24.375,9.1l1.381,4.266c.122-.041,12.594-4.1,24.7-9.222C55.575,119.919,57.809,114.6,57.241,111.022Z" transform="translate(-6.5 -102.416)"/>
          </g>
          <g id="Group_13" data-name="Group 13" transform="translate(3.494 47.511)">
            <path id="Path_44" data-name="Path 44" class="cls-3" d="M16.725,139.214c.2-.081,4.794-1.869,9.384-4.1,7.6-3.737,10.4-6.419,9.791-9.262-.65-2.966-4.266-4.591-20.15-3.413l.325,4.469c9.466-.691,13.325-.244,14.828.122-2.112,1.909-8.856,5.363-15.8,8.044Z" transform="translate(-15.1 -122.049)"/>
          </g>
          <g id="Group_14" data-name="Group 14" transform="translate(2.194 29.859)">
            <path id="Path_45" data-name="Path 45" class="cls-3" d="M229.121,78.6c-22.466,27.1-47.328,24.984-82.672,18.606-32.744-5.891-53.95-2.844-84.134,12.106A249.206,249.206,0,0,1,11.9,127.837l.934,4.347a250.657,250.657,0,0,0,51.431-18.85c29.534-14.625,49.319-17.469,81.331-11.7,16.7,3.006,32.906,5.525,47.328,3.372,15.6-2.316,28.194-9.791,39.569-23.522Z" transform="translate(-11.9 -78.6)"/>
          </g>
          <g id="Group_15" data-name="Group 15" transform="translate(4.225 13.162)">
            <path id="Path_46" data-name="Path 46" class="cls-3" d="M51.878,54.075A78.179,78.179,0,0,0,86.856,65.247c2.6.163,5.2.284,7.881.284,11.172,0,23.441-1.787,41.316-7.759,21.734-7.312,36.806-7.028,48.912-6.825,13.609.244,23.481.406,33.759-10.359L215.515,37.5c-8.937,9.344-17.509,9.222-30.469,8.978-12.431-.244-27.95-.528-50.416,7.028-21.45,7.191-34.491,8.125-47.491,7.272A73.582,73.582,0,0,1,54.194,50.256c-17.347-10.4-36.481-9.75-37.294-9.709l.163,4.469C17.266,45.016,35.709,44.406,51.878,54.075Z" transform="translate(-16.9 -37.5)"/>
          </g>
          <g id="Group_16" data-name="Group 16" transform="translate(36.319 57.362)">
            <path id="Path_47" data-name="Path 47" class="cls-3" d="M202.54,151.3c-12.269-1.3-23.847-2.559-35.019-1.991-35.141,1.747-70.159,20.15-71.622,20.922l2.113,3.941c.366-.2,35.628-18.728,69.753-20.434,10.806-.528,22.222.691,34.328,1.95,24.172,2.559,49.156,5.241,74.384-5.241l-1.706-4.144C250.559,156.416,226.144,153.816,202.54,151.3Z" transform="translate(-95.9 -146.3)"/>
          </g>
          <g id="Group_17" data-name="Group 17" transform="translate(28.356 1.016)">
            <path id="Path_48" data-name="Path 48" class="cls-3" d="M131.753,36.728a46.1,46.1,0,0,0,10.4-1.137c31.444-7.231,47.328-24.253,47.978-24.984L186.84,7.6c-.163.162-15.681,16.7-45.7,23.6-29.616,6.825-61.547-21.9-61.831-22.181L76.3,12.312A114.239,114.239,0,0,0,96.978,26.653C109.166,33.316,120.987,36.728,131.753,36.728Z" transform="translate(-76.3 -7.6)"/>
          </g>
          <g id="Group_18" data-name="Group 18" transform="translate(59.312)">
            <path id="Path_49" data-name="Path 49" class="cls-3" d="M179.6,24.4h.162c8.978,0,17.347-5.362,24.9-15.966l-3.656-2.6c-6.662,9.344-13.812,14.1-21.247,14.1h-.122C166.556,19.847,156.319,5.262,156.2,5.1l-3.7,2.519C152.987,8.309,164.159,24.275,179.6,24.4Z" transform="translate(-152.5 -5.1)"/>
          </g>
          <g id="Group_19" data-name="Group 19" transform="translate(144.909 31.119)">
            <path id="Path_50" data-name="Path 50" class="cls-3" d="M388.957,81.741c-7.434-.284-14.95.934-20.637,3.412-1.5.65-5.566,2.4-5.078,5.566.366,2.316,2.6,4.631,16.494,6.012q2.438.244,4.875.244a41.62,41.62,0,0,0,5.078-.284c6.5-.731,10.644-2.641,12.309-5.606a5.612,5.612,0,0,0,.244-5.078C400.657,82.594,392.41,81.9,388.957,81.741Zm9.181,7.15c-.325.609-1.95,2.559-8.937,3.372a44.129,44.129,0,0,1-8.978.041c-6.663-.65-10.2-1.544-11.781-2.194a12.857,12.857,0,0,1,1.666-.812c11.416-4.916,26.041-2.8,28.153-1.259A1.11,1.11,0,0,1,398.138,88.891Z" transform="translate(-363.201 -81.7)"/>
          </g>
        </g>
        <g id="Group_21" data-name="Group 21">
          <path id="Path_51" data-name="Path 51" class="cls-4" d="M0,87.831,1.747,63.578l5.037-5.4L2.8,45.337l8.409-13.609L4.428,26.122,6.3,0,30.387.366,35.75,4.225,41.681.569h.731L146.981,2.234l8.328,4.1,7.15-3.859,34.328.528,41.966,41.762-39.691,40.1L125,85.962l-17.55-5L89.7,86.49ZM6.459,65.609,5.241,82.834l83.606-1.219,18.484-5.769,18.241,5.2,71.337-1.056,34.9-35.222L194.675,7.841,163.6,7.353l-8.247,4.469-9.587-4.753L43.022,5.444l-7.434,4.631L28.762,5.241,10.806,4.956,9.466,23.969l8.166,6.7L8.125,45.987l4.144,13.406Z"/>
        </g>
      </g>
      <g class="cls-6" transform="matrix(1, 0, 0, 1, 864, 441.82)">
        <text id="Puffysticks-2" data-name="Puffysticks" class="cls-5" transform="matrix(1, -0.03, 0.03, 1, 33.41, 57.48)"><tspan x="0" y="0">Puffysticks</tspan></text>
      </g>
    </g>
  </g>
</svg>
