<svg xmlns="http://www.w3.org/2000/svg" viewBox="0 0 2043.493 103.41" preserveAspectRatio="none">
  <defs>
    <style>
      .cls-1 {
        fill: #312642;
      }
    </style>
  </defs>
  <path id="Path_54" data-name="Path 54" class="cls-1" d="M25.514,38.005c10.675-3.477,28.707-8.054,39.8-10.662C121.706,13.958,269.581-12.928,381.754,7.237c141.362,25.38,318.668,66.752,550.251,29.378S1190.728,4.8,1277.632,26.069,1525.5-.818,1711.911.515,2017.734,21.9,2041.254,59.329s-141.121,28.045-322.106,22.714-247.867,6.664-363.719,17.383-113.982-2.665-242.439-11.995S926.639,90.1,756.509,99.427s-262.34-32.043-396.285-25.38S5.733,111.943,3.8,72.656C2.6,47.8-12,50.174,25.514,38.005Z" transform="translate(-0.01 0.015)"/>
</svg>
