<svg xmlns="http://www.w3.org/2000/svg" viewBox="0 0 107.05 110"><defs><style>.cls-1{fill:#8e3beb;}.cls-2{fill:#e9dff7;}</style></defs><title>offlineSite</title><g id="Layer_2" data-name="Layer 2"><g id="Layer_33" data-name="Layer 33"><path class="cls-1" d="M48.83,12.33a48.73,48.73,0,0,0-33.5,84.22,29.74,29.74,0,0,0,6.5-13l5-38a7.76,7.76,0,0,1,7.69-6.74h30.2a10,10,0,0,1,10,11.33L71.41,74.85a10,10,0,0,1-9.95,8.74h-12S31.3,84.85,31.3,105.08a14.24,14.24,0,0,1-.19,1.48A48.79,48.79,0,1,0,48.83,12.33Z"/><path class="cls-1" d="M46.72,54.16A3.86,3.86,0,0,1,45.84,58a4.82,4.82,0,0,1-6.94,0A3.87,3.87,0,0,1,38,54.16l.29-.27a6.94,6.94,0,0,0,1.91,1.19,5.64,5.64,0,0,0,2.15.42,5.54,5.54,0,0,0,2.15-.43,6.63,6.63,0,0,0,1.9-1.18Z"/><path class="cls-1" d="M68.78,54.16A3.88,3.88,0,0,1,67.91,58,4.83,4.83,0,0,1,61,58a3.87,3.87,0,0,1-.87-3.85l.29-.27a6.89,6.89,0,0,0,1.9,1.19,5.72,5.72,0,0,0,2.15.42,5.47,5.47,0,0,0,2.15-.43,6.68,6.68,0,0,0,1.91-1.18Z"/><path class="cls-1" d="M52.73,64.72c4-.23,7.8,1.91,8,4.75s-3.33,5.67-7.35,5.9-7.26-2.2-7.42-5.05S48.7,65,52.73,64.72Z"/><path class="cls-2" d="M39.58,24.17H49.81v5.58h-19V24.46l9.57-10.32H30.84V8.61H49.4v5Z"/><path class="cls-2" d="M63.79,19.29H76.48V26.2H52.91V19.65L64.77,6.86H53V0H76V6.14Z"/><path class="cls-2" d="M92,29.12h15v8.2H79.11V29.55L93.17,14.39h-14V6.26h27.27v7.27Z"/></g></g></svg>