<?xml version="1.0" standalone="no"?>
<!DOCTYPE svg PUBLIC "-//W3C//DTD SVG 1.1//EN" "http://www.w3.org/Graphics/SVG/1.1/DTD/svg11.dtd">
<svg xmlns="http://www.w3.org/2000/svg">
<metadata>Copyright (C) 2019 by original authors @ fontello.com</metadata>
<defs>
<font id="pufficon" horiz-adv-x="1000" >
<font-face font-family="pufficon" font-weight="400" font-stretch="normal" units-per-em="1000" ascent="850" descent="-150" />
<missing-glyph horiz-adv-x="1000" />
<glyph glyph-name="close" unicode="&#xe800;" d="M988-76a43 43 0 0 0 0-62 51 51 0 0 0-65 0l-422 425-422-425a45 45 0 0 0-33-12 45 45 0 0 0-33 12 43 43 0 0 0 0 62l425 425-425 422a54 54 0 0 0 0 66 43 43 0 0 0 63 0l425-425 425 425a43 43 0 0 0 62 0 43 43 0 0 0 0-63l-425-425z" horiz-adv-x="1002" />

<glyph glyph-name="logo" unicode="&#xe801;" d="M501 850a500 500 0 0 1-344-864 307 307 0 0 1 67 134l51 390a79 79 0 0 0 79 68h310a103 103 0 0 0 102-116l-33-252a103 103 0 0 0-102-89h-123s-187-14-187-221a79 79 0 0 0-2-15 489 489 0 0 1 182-35 500 500 0 1 1 0 1000z m207-415a46 46 0 1 1-46-46 47 47 0 0 1 46 46z m-273 46a46 46 0 1 1 46-46 46 46 0 0 1-46 46z m113-274a108 108 0 0 1 108 109h-218a110 110 0 0 1 110-109z" horiz-adv-x="1001" />

<glyph glyph-name="search" unicode="&#xe802;" d="M986-59l-241 241a416 416 0 0 1-35 548h0a421 421 0 0 1-590 0 421 421 0 0 1 0-590 418 418 0 0 1 294-122 403 403 0 0 1 254 87l241-241a60 60 0 0 1 77 0 55 55 0 0 1 0 77z m-789 276a311 311 0 0 0 440 439h0a311 311 0 0 0-440-439z" horiz-adv-x="1002" />

<glyph glyph-name="filter" unicode="&#xe803;" d="M806 757a171 171 0 0 1-153 93 32 32 0 0 1-15-2 601 601 0 0 0-457 0 19 19 0 0 1-13 2 165 165 0 0 1-151-93 170 170 0 0 1 18-178l241-322a160 160 0 0 1 98-63v-306a38 38 0 0 1 76 0v306a167 167 0 0 1 98 63l241 322a170 170 0 0 1 17 178z m-78-133l-241-322a96 96 0 0 0-75-37 90 90 0 0 0-76 37l-241 322a94 94 0 0 0 68 151 680 680 0 0 1 498 0 91 91 0 0 0 77-53 93 93 0 0 0-10-98z" horiz-adv-x="824" />

<glyph glyph-name="menudots" unicode="&#xe804;" d="M130 785a62 62 0 0 0-65-65 62 62 0 0 0-65 65 67 67 0 0 0 65 65 67 67 0 0 0 65-65z m370 65a67 67 0 0 1-65-65 65 65 0 0 1 130 0 64 64 0 0 1-65 65z m435-130a62 62 0 0 1 65 65 65 65 0 0 1-130 0 64 64 0 0 1 65-65z m0-305a65 65 0 1 1 65-65 64 64 0 0 1-65 65z m-435 0a65 65 0 1 1 65-65 64 64 0 0 1-65 65z m-435 0a67 67 0 0 1-65-65 64 64 0 0 1 65-65 65 65 0 0 1 0 130z m0-435a67 67 0 0 1-65-65 64 64 0 0 1 65-65 65 65 0 0 1 0 130z m435 0a65 65 0 1 1 65-65 64 64 0 0 1-65 65z m435 0a65 65 0 1 1 65-65 64 64 0 0 1-65 65z" horiz-adv-x="1000" />

<glyph glyph-name="view" unicode="&#xe805;" d="M1428 477c-125 140-385 373-689 373s-564-233-690-373a188 188 0 0 1 0-254c129-140 389-373 690-373s564 233 689 373a188 188 0 0 1 0 254z m-65-194c-117-128-355-343-624-343s-508 215-624 343h0a94 94 0 0 0 0 131c116 132 355 346 624 346s507-214 624-343a97 97 0 0 0 0-134z m-624 409a343 343 0 1 1 343-343 345 345 0 0 1-343 343z m0-597a254 254 0 1 0 254 254 254 254 0 0 0-254-254z" horiz-adv-x="1478" />

<glyph glyph-name="like" unicode="&#xe806;" d="M1081 753a329 329 0 0 1-466 0l-25-24-24 24a332 332 0 0 1-469-469l391-391a147 147 0 0 1 102-43 141 141 0 0 1 103 43l388 391a330 330 0 0 1 97 235 320 320 0 0 1-97 234z m-57-410l-391-393a63 63 0 0 0-89 0l-390 393a251 251 0 0 0 355 353l54-53a39 39 0 0 1 57 0l54 53a251 251 0 0 0 353 0 253 253 0 0 0-3-353z" horiz-adv-x="1178" />

<glyph glyph-name="liked" unicode="&#xe807;" d="M1074 750a346 346 0 0 1-241 100 342 342 0 0 1-241-100l-5-5-5 5a341 341 0 0 1-482 0 341 341 0 0 1 0-482l372-372a161 161 0 0 1 115-46 170 170 0 0 1 116 46l371 372a341 341 0 0 1 0 482z" horiz-adv-x="1174" />

<glyph glyph-name="checkmark" unicode="&#xe808;" d="M1513 777l-919-916a47 47 0 0 0-60 0l-522 521a40 40 0 0 0 0 58 40 40 0 0 0 58 0l491-491 892 889a40 40 0 0 0 57 0 46 46 0 0 0 3-61z" horiz-adv-x="1523" />

<glyph glyph-name="arrowdown" unicode="&#xe809;" d="M806 257l-369-394a37 37 0 0 0-56 0l-371 394a37 37 0 0 0 3 53 37 37 0 0 0 54-2l304-323v827a38 38 0 1 0 77 0v-827l304 323a40 40 0 0 0 54 2 37 37 0 0 0 0-53z" horiz-adv-x="817" />

<glyph glyph-name="pagearrow" unicode="&#xe80a;" d="M585 349a58 58 0 0 0-18-40l-477-445a51 51 0 0 0-36-14 58 58 0 0 0-39 18 52 52 0 0 0 3 75l434 406-434 409a52 52 0 0 0-3 75 56 56 0 0 0 75 4l477-449a46 46 0 0 0 18-39z" horiz-adv-x="585" />

<glyph glyph-name="moredots" unicode="&#xe80b;" d="M130 785a62 62 0 0 0-65-65 62 62 0 0 0-65 65 67 67 0 0 0 65 65 67 67 0 0 0 65-65z m-65-370a67 67 0 0 1-65-65 64 64 0 0 1 65-65 65 65 0 0 1 0 130z m0-435a67 67 0 0 1-65-65 64 64 0 0 1 65-65 65 65 0 0 1 0 130z" horiz-adv-x="130" />

<glyph glyph-name="image" unicode="&#xe80c;" d="M1255 850h-1228a28 28 0 0 1-27-27v-946a28 28 0 0 1 27-27h1228a28 28 0 0 1 27 27v946a28 28 0 0 1-27 27z m-27-54v-669l-330 333a21 21 0 0 1-20 7 29 29 0 0 1-20-9l-239-290-211 211a21 21 0 0 1-19 7 29 29 0 0 1-20-9l-315-380v799z m-1174-883l336 406 193-192-184-223h-345z m415-9l410 496 349-349v-147h-759z" horiz-adv-x="1282" />

<glyph glyph-name="emoji" unicode="&#xe80d;" d="M500 850a500 500 0 1 1 500-500 501 501 0 0 1-500 500z m0-957a458 458 0 1 0 458 457 458 458 0 0 0-458-457z m-294 442h588a289 289 0 0 0-67-186 296 296 0 0 0-227-108 294 294 0 0 0-294 294z m11 112a20 20 0 0 0-18 11 21 21 0 0 0 9 28 285 285 0 0 0 137 33l-33 40a21 21 0 1 0 31 26l67-80a21 21 0 0 0 1-25 20 20 0 0 0-23-8 252 252 0 0 1-162-24 49 49 0 0 0-8-1z m582 11a22 22 0 0 0-18-11 26 26 0 0 0-9 3 242 242 0 0 1-163 23 23 23 0 0 0-23 9 21 21 0 0 0 3 25l66 80a21 21 0 0 0 32-26l-33-40a285 285 0 0 0 137-34 22 22 0 0 0 8-29z" horiz-adv-x="1000" />

<glyph glyph-name="notfeatured" unicode="&#xe80e;" d="M1033 477a128 128 0 0 1-123 89h-206l-62 195h0a129 129 0 0 1-246 0l-63-195h-203a130 130 0 0 1-123-89 124 124 0 0 1 47-143l165-121-62-195a124 124 0 0 1 47-143 128 128 0 0 1 152 0l165 121 166-121a130 130 0 0 1 152 0 124 124 0 0 1 47 143l-63 195 165 120a133 133 0 0 1 45 144z m-87-90l-186-134a35 35 0 0 1-11-38l72-219a59 59 0 0 0-23-69 57 57 0 0 0-71 0l-186 134a34 34 0 0 1-40 0l-186-134a57 57 0 0 0-71 0 59 59 0 0 0-23 69l72 219a35 35 0 0 1-11 38l-186 134a61 61 0 0 0-22 70 60 60 0 0 0 58 42h226a34 34 0 0 1 31 22l72 220a62 62 0 0 0 58 42 60 60 0 0 0 58-42h0l72-220a34 34 0 0 1 31-22h230a60 60 0 0 0 58-42 61 61 0 0 0-22-70z" horiz-adv-x="1039" />

<glyph glyph-name="featured" unicode="&#xe80f;" d="M994 361l-199-143 77-235a100 100 0 0 0-155-112l-199 143-199-143a101 101 0 0 0-155 112l76 235-198 143a102 102 0 0 0 60 185h246l77 234a99 99 0 0 0 189 0l76-234h247a102 102 0 0 0 57-185z" horiz-adv-x="1036" />

<glyph glyph-name="visible" unicode="&#xe810;" d="M1428 477c-125 140-385 373-689 373s-564-233-690-373a188 188 0 0 1 0-254c129-140 389-373 690-373s564 233 689 373a188 188 0 0 1 0 254z m-65-194c-117-128-355-343-624-343s-508 215-624 343h0a94 94 0 0 0 0 131c116 132 355 346 624 346s507-214 624-343a97 97 0 0 0 0-134z m-624 409a343 343 0 1 1 343-343 345 345 0 0 1-343 343z m0-597a254 254 0 1 0 254 254 254 254 0 0 0-254-254z" horiz-adv-x="1478" />

<glyph glyph-name="notvisible" unicode="&#xe811;" d="M179 115a1238 1238 0 0 0-139 131 153 153 0 0 0 0 207c105 114 316 304 562 304a529 529 0 0 0 184-35l-58-58a443 443 0 0 1-126 20c-219 0-414-175-508-280a81 81 0 0 1 0-107 914 914 0 0 1 138-129z m984 338a1238 1238 0 0 1-139 131l-51-51a1013 1013 0 0 0 136-129 81 81 0 0 0 0-107c-95-104-289-279-507-279a443 443 0 0 0-127 19l-58-58a519 519 0 0 1 185-34c247 0 459 189 561 304a150 150 0 0 1 0 204z m-561-311h-17l-64-64a278 278 0 0 1 80-12 281 281 0 0 1 280 280 306 306 0 0 1-12 80l-63-63v-17a202 202 0 0 0-204-204z m0 413h17l60 63a278 278 0 0 1-80 12 281 281 0 0 1-279-279 306 306 0 0 1 12-80l63 60v17a206 206 0 0 0 207 207z m488 284a35 35 0 0 1-51 0l-926-928a35 35 0 0 1 0-51 37 37 0 0 1 27-10 37 37 0 0 1 27 10l923 926a38 38 0 0 1 0 53z" horiz-adv-x="1203" />

<glyph glyph-name="edit" unicode="&#xe812;" d="M972 745h0l-78 77a95 95 0 0 1-135 0l-91-91-563-563a10 10 0 0 1-3-6h0l-98-241a50 50 0 0 1 11-55 52 52 0 0 1 36-16 55 55 0 0 1 19 4l241 97h0a4 4 0 0 1 3 1c1 2 2 2 3 3l563 562h0l92 92a97 97 0 0 1 0 136z m-292-53l67-67-535-538-68 69z m-612-707l57 138 73-73h0l74-73-139-57z m237 9l-67 68 536 536 67-67z m641 641l-79-78-81 81h0l-37 37-43 42 79 79a60 60 0 0 0 84 0l77-78a59 59 0 0 0 0-83z" horiz-adv-x="999" />

<glyph glyph-name="delete" unicode="&#xe813;" d="M353 449v-362a27 27 0 1 0-54 0v362a27 27 0 0 0 54 0z m205 27a28 28 0 0 1-27-27v-362a27 27 0 1 1 54 0v362a27 27 0 0 1-27 27z m325 178a28 28 0 0 0-27-27h-39l-35-574a218 218 0 0 0-217-203h-247a219 219 0 0 0-217 203l-34 574h-40a27 27 0 1 0 0 54h243v76a94 94 0 0 0 93 93h157a94 94 0 0 0 94-93v-76h242a28 28 0 0 0 27-27z m-559 27h237v76a40 40 0 0 1-39 39h-157a40 40 0 0 1-41-39z m439-54h-642l34-570a165 165 0 0 1 163-153h247a165 165 0 0 1 163 153z" horiz-adv-x="883" />

<glyph glyph-name="notify" unicode="&#xe814;" d="M742 146l-8 16a531 531 0 0 0-56 202l-9 118a257 257 0 0 1-231 236 62 62 0 0 1 0 6v74a52 52 0 1 1-104 0v-74a62 62 0 0 1 0-6 257 257 0 0 1-230-236l-9-118a531 531 0 0 0-55-202l-9-16c-36-72-41-145-12-192a110 110 0 0 1 100-50 30 30 0 0 1 30 31c0 26 90 63 238 63a627 627 0 0 0 174-24c46-14 63-31 63-41a30 30 0 0 1 30-30 110 110 0 0 1 100 51c29 47 24 120-12 192z m-38-160a45 45 0 0 0-28-20c-32 67-165 91-289 91s-258-24-290-91a45 45 0 0 0-27 20c-18 28-12 82 14 133l8 16a588 588 0 0 1 63 225l8 118a196 196 0 0 0 195 181h56a196 196 0 0 0 195-181l9-118a592 592 0 0 1 62-225l9-16c26-51 32-105 15-133z m-210-91c0-26-47-46-105-46s-106 20-106 46 48 46 106 46 105-20 105-46z" horiz-adv-x="773" />

<glyph glyph-name="comments" unicode="&#xe815;" d="M587 850c-324 0-587-197-587-440a377 377 0 0 1 125-271l-32-246a39 39 0 0 1 15-35 40 40 0 0 1 38-5l304 129a779 779 0 0 1 136-12c324 0 587 197 587 440s-263 440-586 440z m0-803a702 702 0 0 0-133 13 37 37 0 0 1-22-2l-255-108 26 198a38 38 0 0 1-13 34 306 306 0 0 0-113 228c0 201 229 363 510 363s511-162 511-363-230-363-511-363z" horiz-adv-x="1173" />

<glyph glyph-name="facebook" unicode="&#xe816;" d="M429 78h113v272h75l10 94h-85v47c0 24 2 37 37 37h47v94h-75c-90 0-122-45-122-122v-56h-56v-94h56z m71-228a500 500 0 1 0 500 500 500 500 0 0 0-500-500z" horiz-adv-x="1000" />

<glyph glyph-name="twitter" unicode="&#xe817;" d="M570 545a101 101 0 0 1-69-101l1-17-16 2a283 283 0 0 0-167 82l-23 22-6-16a102 102 0 0 1 21-105c14-15 11-16-13-8-8 3-16 5-16 4a129 129 0 0 1 12-47 113 113 0 0 1 48-46l17-8-20 0c-20 0-21 0-19-7a106 106 0 0 1 66-58l21-8-19-11a198 198 0 0 0-93-26 109 109 0 0 1-28-4 264 264 0 0 1 66-31 295 295 0 0 1 230 26 307 307 0 0 1 117 137 367 367 0 0 1 24 106c0 17 1 19 20 38a249 249 0 0 1 25 27c3 7 3 7-15 1-30-11-33-9-19 7a103 103 0 0 1 24 37c0 2-6 0-12-3a200 200 0 0 0-30-12l-19-6-17 11a139 139 0 0 1-30 16 118 118 0 0 1-61-2z m-70-695a500 500 0 1 0 500 500 500 500 0 0 0-500-500z" horiz-adv-x="1000" />

<glyph glyph-name="instagram" unicode="&#xe818;" d="M496 435a90 90 0 1 0-89-89 89 89 0 0 0 89 89z m112 131h-224a111 111 0 0 1-79-29 112 112 0 0 1-28-79v-225a113 113 0 0 1 30-81 115 115 0 0 1 79-28h222a111 111 0 0 1 79 28 104 104 0 0 1 31 79v225a115 115 0 0 1-29 79 109 109 0 0 1-81 31z m-112-358a138 138 0 1 0 0 276 138 138 0 1 0 0-276z m144 250a33 33 0 1 0 34 32 32 32 0 0 0-34-32z m-140 392a500 500 0 1 1 500-500 500 500 0 0 1-500 500z m267-618a161 161 0 0 0-45-116 158 158 0 0 0-114-43h-222a158 158 0 0 0-114 44 153 153 0 0 0-44 116v223c0 93 63 158 158 158h224a150 150 0 0 0 157-158z" horiz-adv-x="1000" />

<glyph glyph-name="logout" unicode="&#xe819;" d="M644-28v-88a35 35 0 0 0-34-34h-576a35 35 0 0 0-34 34v932a35 35 0 0 0 34 34h576a35 35 0 0 0 34-34v-88a34 34 0 0 0-68 0v54h-508v-864h508v54a34 34 0 0 0 68 0z m209 359h0a8 8 0 0 1 2 7v2c0 2 0 2 2 5v13c0 2 0 2-2 5v2c0 2-2 2-2 4v3c-3 2-3 4-5 4l-229 227a34 34 0 0 1-48-48l173-172h-522a34 34 0 1 1 0-68h522l-172-172a33 33 0 0 1 0-48 39 39 0 0 1 50 0l229 229h0c-1 5-1 5 2 7z" horiz-adv-x="857" />

<glyph glyph-name="code" unicode="&#xe81a;" d="M306 560l-210-210 210-210a39 39 0 0 0 0-56 40 40 0 0 0-29-11 40 40 0 0 0-30 11l-236 237a56 56 0 0 0-11 29 56 56 0 0 0 11 29l236 237a39 39 0 0 0 56 0 37 37 0 0 0 3-56z m878-181l-237 237a40 40 0 0 1-56-56l210-210-210-210a39 39 0 0 1 0-56 46 46 0 0 1 59 0l236 237a40 40 0 0 1 11 29 43 43 0 0 1-13 29z m-399 468a39 39 0 0 1-51-24l-346-920a39 39 0 0 1 24-50 29 29 0 0 1 14-3 40 40 0 0 1 37 27l346 920a39 39 0 0 1-24 50z" horiz-adv-x="1197" />

<glyph glyph-name="guest" unicode="&#xe81b;" d="M435-150a607 607 0 0 0-81 5 58 58 0 0 0-48 64 228 228 0 0 0 196 240h120a72 72 0 0 1 71 61l28 240a75 75 0 0 1-18 56 71 71 0 0 1-53 25h-292a46 46 0 0 1-48-42l-47-370v-4a342 342 0 0 0-36-90 65 65 0 0 0-51-33 69 69 0 0 0-56 23 491 491 0 0 0-118 361 497 497 0 0 0 886 275 507 507 0 0 0 88-453 497 497 0 0 0-479-358h-62z m71 256c-16-2-146-27-146-189v-4c0-3 1-7 5-7a663 663 0 0 1 104-5h30a440 440 0 0 1 428 319 449 449 0 0 1-79 406 446 446 0 1 1-689-566 17 17 0 0 1 12-4 15 15 0 0 1 11 7 310 310 0 0 1 30 74l47 367a101 101 0 0 0 101 88h290a129 129 0 0 0 94-42 122 122 0 0 0 30-97l-32-238a124 124 0 0 0-123-107h-113z m-175-187z" horiz-adv-x="996" />

<glyph glyph-name="bold" unicode="&#xe81c;" d="M304 454a284 284 0 0 1-172-53v383a68 68 0 0 1-66 66 68 68 0 0 1-66-66v-868a68 68 0 0 1 66-66 70 70 0 0 1 66 53 294 294 0 0 1 172-53 305 305 0 0 1 304 304 301 301 0 0 1-304 300z m0-472a169 169 0 0 0-172 172 166 166 0 0 0 172 167 170 170 0 1 0 0-339z" horiz-adv-x="608" />

<glyph glyph-name="italic" unicode="&#xe81d;" d="M283 746a106 106 0 0 0-105-105 106 106 0 0 0-104 105 110 110 0 0 0 109 104 102 102 0 0 0 100-104z m-100-766a45 45 0 0 0-35 18 38 38 0 0 0-9 35l83 347a161 161 0 0 1-31 140 163 163 0 0 1-130 60 59 59 0 0 1-61-60 67 67 0 0 1 65-66 37 37 0 0 0 26-13c5-4 9-13 5-30l-83-348a180 180 0 0 1 30-148 169 169 0 0 1 135-65 67 67 0 0 1 65 65 63 63 0 0 1-60 65z" horiz-adv-x="283" />

<glyph glyph-name="justifyleft" unicode="&#xe81e;" d="M662 295h-509v114h340a34 34 0 0 1 33 33v192a34 34 0 0 1-33 33h-340v150a34 34 0 0 1-33 33 34 34 0 0 1-33-33v-150h-54a32 32 0 0 1-33-33v-194a34 34 0 0 1 33-33h54v-114h-54a34 34 0 0 1-33-32v-195a34 34 0 0 1 33-33h54v-150a34 34 0 0 1 33-33 36 36 0 0 1 33 35v151h509a34 34 0 0 1 32 32v195a34 34 0 0 1-32 32z m-596 306h395v-129h-395z m563-500h-563v129h563z" horiz-adv-x="694" />

<glyph glyph-name="justifyright" unicode="&#xe81f;" d="M0 261v-194a34 34 0 0 1 33-33h510v-151a33 33 0 0 1 65 0v151h55a34 34 0 0 1 33 33v194a34 34 0 0 1-33 33h-55v114h55a34 34 0 0 1 33 33v192a34 34 0 0 1-33 33h-55v151a33 33 0 0 1-65 0v-151h-342a31 31 0 0 1-32-33v-194a34 34 0 0 1 32-33h342v-114h-510a30 30 0 0 1-33-31z m630 213h-396v129h396z m-564-245h564v-129h-564z" horiz-adv-x="696" />

<glyph glyph-name="justifycenter" unicode="&#xe820;" d="M662 295h-282v114h199a34 34 0 0 1 32 33v192a34 34 0 0 1-32 33h-199v150a33 33 0 0 1-66 0v-150h-198a32 32 0 0 1-33-33v-194a34 34 0 0 1 33-33h198v-114h-281a34 34 0 0 1-33-32v-195a34 34 0 0 1 33-33h281v-150a33 33 0 0 1 66 0v150h282a34 34 0 0 1 32 33v195a34 34 0 0 1-32 34z m-513 306h397v-129h-397z m480-500h-563v129h563z" horiz-adv-x="694" />
</font>
</defs>
</svg>
