<svg id="Group_28" data-name="Group 28" xmlns="http://www.w3.org/2000/svg" viewBox="0 0 40 39.959">
  <defs>
    <style>
      .cls-1 {
        fill: #392a4a;
      }
    </style>
  </defs>
  <path id="Path_58" data-name="Path 58" class="cls-1" d="M20,0A19.976,19.976,0,0,0,6.27,34.508,12.252,12.252,0,0,0,8.934,29.18l2.049-15.574a3.148,3.148,0,0,1,3.156-2.746H26.516a4.127,4.127,0,0,1,4.1,4.631L29.3,25.574a4.115,4.115,0,0,1-4.1,3.566H20.287s-7.459.533-7.459,8.811a3.164,3.164,0,0,1-.082.615A19.531,19.531,0,0,0,20,39.959,19.98,19.98,0,1,0,20,0Z"/>
  <path id="Path_59" data-name="Path 59" class="cls-1" d="M63.689,37.844a1.844,1.844,0,1,0-1.844,1.844A1.863,1.863,0,0,0,63.689,37.844Z" transform="translate(-35.41 -21.246)"/>
  <path id="Path_60" data-name="Path 60" class="cls-1" d="M39.744,36a1.844,1.844,0,1,0,1.844,1.844A1.837,1.837,0,0,0,39.744,36Z" transform="translate(-22.367 -21.246)"/>
  <path id="Path_61" data-name="Path 61" class="cls-1" d="M47.085,56.444A4.32,4.32,0,0,0,51.43,52.1H42.7A4.382,4.382,0,0,0,47.085,56.444Z" transform="translate(-25.2 -30.748)"/>
</svg>
